<?xml version="1.0" encoding="UTF-8" standalone="no"?>
<!-- Created with Inkscape (http://www.inkscape.org/) -->

<svg
   width="500"
   height="200"
   viewBox="0 0 132.29166 52.916666"
   version="1.1"
   id="svg1"
   inkscape:version="1.3.2 (091e20e, 2023-11-25, custom)"
   sodipodi:docname="bistroquet-nom.svg"
   xmlns:inkscape="http://www.inkscape.org/namespaces/inkscape"
   xmlns:sodipodi="http://sodipodi.sourceforge.net/DTD/sodipodi-0.dtd"
   xmlns="http://www.w3.org/2000/svg"
   xmlns:svg="http://www.w3.org/2000/svg">
  <sodipodi:namedview
     id="namedview1"
     pagecolor="#ffffff"
     bordercolor="#000000"
     borderopacity="0.25"
     inkscape:showpageshadow="2"
     inkscape:pageopacity="0.0"
     inkscape:pagecheckerboard="0"
     inkscape:deskcolor="#d1d1d1"
     inkscape:document-units="mm"
     inkscape:zoom="1.6732399"
     inkscape:cx="228.2996"
     inkscape:cy="116.24155"
     inkscape:window-width="2560"
     inkscape:window-height="1351"
     inkscape:window-x="-9"
     inkscape:window-y="-9"
     inkscape:window-maximized="1"
     inkscape:current-layer="layer1" />
  <defs
     id="defs1" />
  <g
     inkscape:label="Calque 1"
     inkscape:groupmode="layer"
     id="layer1">
    <path
       d="m 21.60939,38.656292 c -0.140878,-0.248625 -0.783583,-1.805247 -2.20778,-5.26819 -0.775018,-0.07849 -3.8232,0.345179 -3.873645,-0.490301 0.178979,-0.704255 2.170818,-0.451498 2.817896,-0.451498 0.819897,-2.145921 2.463227,-3.630533 4.607453,-4.317762 0.608883,-0.164802 0.806414,-0.285666 1.24412,-0.761244 1.760976,-1.913347 4.276682,-2.311793 6.884355,-1.090374 0.586742,0.274825 0.796014,0.305236 2.281799,0.331595 2.169874,0.03851 3.027364,0.28004 4.590818,1.293189 0.956684,0.619949 2.490555,2.318536 3.226861,3.573365 l 0.569891,0.971231 c 0.926666,0.121563 2.57687,-0.201621 3.414552,0.102836 0.178098,0.207269 0.09635,0.529438 0.07071,0.780067 l -3.77148,0.117723 c -0.788294,1.751862 -1.390862,3.596129 -2.224045,5.32705 z m 18.930653,-5.186819 c 0,-0.04475 -4.535422,-0.08137 -10.078703,-0.08137 -5.70529,0 -10.078707,0.04481 -10.078707,0.103227 0,0.1518 1.131579,2.821806 1.58992,3.987706 l 0.196696,0.50033 h 16.54714 c 0.569933,-1.516476 1.30727,-2.972229 1.823654,-4.509896 z M 25.34283,30.499408 c 1.287481,0.140805 2.840901,0.646261 4.168683,1.356407 0.966595,0.516968 1.439389,0.603651 3.087081,0.565996 l 1.504036,-0.03439 -1.978946,-1.197338 c -3.096748,-1.873649 -4.722505,-2.444601 -6.939153,-2.436975 -3.870623,0.0133 -5.203513,2.109899 -5.976303,3.693176 l 0.930199,-0.0021 0.930191,-0.0021 c 1.048755,-1.378659 2.56845,-2.043939 4.274212,-1.943003 z m 2.965889,1.753306 c -1.631157,-0.79342 -4.112786,-1.058849 -5.108003,-0.546338 -0.392376,0.184838 -0.727575,0.454882 -1.052434,0.739927 l 3.259471,-0.0096 c 2.974415,-0.0088 3.22812,-0.02486 2.900966,-0.183985 z m 6.690674,-2.000644 c -0.550084,-0.164153 -1.919795,-0.196088 -2.373056,-0.05532 -0.376214,0.07313 2.437587,2.2443 4.43101,2.242272 l 0.897059,-8.36e-4 C 37.123504,31.486648 36.20678,30.650113 34.999393,30.252183 Z m 0.967181,-2.370283 c -2.750704,-1.046364 -6.724374,0.43885 -6.715514,0.655693 0.636963,0.442813 1.37403,0.749969 2.070606,1.089051 1.326001,-0.461388 2.746122,-0.554421 4.099876,-0.149068 1.553645,0.471172 2.559402,1.76135 3.588229,2.952022 l 1.765621,0.0168 c -1.096493,-2.025531 -2.716704,-3.66364 -4.808818,-4.56451 z m -5.417549,-0.906089 c -0.752408,-0.332646 -1.538379,-0.445015 -2.356712,-0.456811 -1.284999,-0.118411 -2.271302,0.496408 -3.218855,1.277286 0.992523,0.03347 1.959455,0.170759 2.9226,0.399984 0.858288,-0.453228 1.753921,-0.847159 2.652967,-1.220459 z M 27.15806,23.828842 c -0.18423,-0.205505 -0.158421,-0.353572 0.140404,-0.805381 0.742147,-1.123439 0.447971,-1.929624 -0.210881,-2.95446 -1.836234,-2.776852 0.188567,-4.232065 0.363022,-4.203372 0.451173,0.07421 0.482568,0.354536 0.10637,0.94989 -0.236458,0.374209 -0.35916,0.72185 -0.392612,1.112359 -0.133745,1.561054 1.784526,2.027544 1.34261,4.227196 -0.261159,1.299932 -0.93476,2.135757 -1.348913,1.673768 z m 3.050432,-0.631515 c 0.221233,-0.152521 0.512062,-1.053625 0.514373,-1.593735 0.006,-1.399662 -1.249166,-1.566812 -1.349745,-3.328845 -0.0684,-1.198402 0.557784,-2.502791 1.155969,-2.407913 0.349032,0.05535 0.365597,0.394404 0.04453,0.911211 -0.345647,0.556383 -0.503386,1.149205 -0.420215,1.579332 0.149384,0.772711 1.398136,1.71959 1.410847,3.199375 0.0088,1.016933 -0.617908,2.413364 -1.082994,2.413364 -0.678067,0 -0.306558,-0.749491 -0.272764,-0.772789 z m 2.935663,0.584966 c -0.117085,-0.157363 -0.110852,-0.238493 0.03842,-0.50033 0.685221,-1.201897 0.747483,-1.910859 0.237548,-2.704857 -0.979467,-1.388104 -1.485056,-2.567148 -0.573833,-4.217098 0.226094,-0.366565 0.389128,-0.51291 0.571413,-0.51291 0.375796,0 0.518391,0.374901 0.275081,0.7232 -0.818742,1.150457 -0.597104,2.035151 0.15457,3.053692 1.700688,2.261388 -0.126664,4.93323 -0.703208,4.158303 z"
       style="fill:#000000;stroke-width:0.111464"
       id="path1"
       sodipodi:nodetypes="ccscsssssscsccccssssccsssscsscccsssccssscccsscssccscssccssccscsssccsscsssccsssssccccs" />
    <path
       style="font-size:13.1345px;line-height:1.1;font-family:'Libre Caslon Text';-inkscape-font-specification:'Libre Caslon Text, Normal';fill:#1a1a1a;stroke-width:5.91051;stroke-linecap:square;stroke-miterlimit:0;paint-order:markers stroke fill"
       d="m 54.048969,35.818193 q -1.011356,0 -1.812561,-0.604187 h -0.06567 l -0.604187,0.446573 h -0.210152 v -9.706395 l -0.958818,-0.354632 v -0.170748 l 2.088385,-0.643591 h 0.131345 v 4.702151 q 0.827473,-0.893146 1.996444,-0.893146 0.853742,0 1.510467,0.420304 0.656725,0.420304 1.024491,1.182105 0.367766,0.748666 0.367766,1.720619 0,1.090164 -0.459707,1.98331 -0.446573,0.893146 -1.247778,1.405391 -0.78807,0.512246 -1.760023,0.512246 z m 0,-0.446573 q 0.617322,0 1.077029,-0.380901 0.472842,-0.394035 0.722398,-1.090163 0.26269,-0.696129 0.26269,-1.615544 0,-1.392257 -0.551649,-2.180327 -0.538515,-0.801204 -1.497333,-0.801204 -0.433439,0 -0.814339,0.183883 -0.367766,0.183883 -0.630456,0.499111 v 3.730198 q 0,0.748666 0.394035,1.208374 0.394035,0.446573 1.037625,0.446573 z m 5.253791,-9.075939 q 0,-0.367766 0.223287,-0.604187 0.236421,-0.249556 0.617321,-0.249556 0.3809,0 0.617321,0.249556 0.236421,0.236421 0.236421,0.604187 0,0.354631 -0.236421,0.604186 -0.236421,0.236421 -0.617321,0.236421 -0.3809,0 -0.617321,-0.236421 -0.223287,-0.249555 -0.223287,-0.604186 z m 2.456151,9.391167 h -3.231086 v -0.26269 l 0.998222,-0.197018 v -5.463952 l -0.971953,-0.354631 v -0.183883 l 2.101519,-0.630456 h 0.118211 v 6.632922 l 0.985087,0.197018 z m 3.506902,-7.09263 q 0.446573,0 0.866877,0.06567 0.433438,0.05254 0.682994,0.157614 V 30.6432 h -0.275825 q -0.197017,-1.654947 -1.536736,-1.654947 -0.52538,0 -0.840608,0.288959 -0.302093,0.288959 -0.302093,0.774935 0,0.367766 0.183883,0.630456 0.197017,0.249556 0.472842,0.420304 0.275824,0.170749 0.7618,0.394035 0.604187,0.275825 0.958819,0.512246 0.367766,0.236421 0.630456,0.656725 0.26269,0.407169 0.26269,1.024491 0,0.971953 -0.656725,1.549871 -0.643591,0.577918 -1.760023,0.577918 -0.420304,0 -0.932549,-0.07881 -0.499111,-0.07881 -0.880012,-0.210152 l -0.07881,-2.127789 h 0.315228 q 0.09194,0.998222 0.512246,1.510467 0.420304,0.512246 1.16897,0.512246 0.591052,0 0.945684,-0.328363 0.354631,-0.328362 0.354631,-0.880011 0,-0.40717 -0.197017,-0.682994 -0.197018,-0.288959 -0.485977,-0.459708 -0.288959,-0.183883 -0.814338,-0.446573 -0.591053,-0.288959 -0.945684,-0.512245 -0.354632,-0.236421 -0.604187,-0.630456 -0.249556,-0.394035 -0.249556,-0.971953 0,-0.919415 0.630456,-1.418526 0.643591,-0.499111 1.812561,-0.499111 z m 5.227524,7.223975 q -0.630455,0 -1.02449,-0.367766 -0.236421,-0.223287 -0.341497,-0.551649 -0.09194,-0.341497 -0.09194,-0.945684 V 29.18527 h -0.853742 l -0.02627,-0.210152 1.891368,-1.970175 0.23642,0.02627 v 1.694351 h 1.878234 l -0.105076,0.459707 h -1.773158 v 4.649613 q 0,0.472842 0.02627,0.682994 0.02627,0.197018 0.09194,0.315228 0.210152,0.367766 0.656725,0.367766 0.26269,0 0.52538,-0.144479 0.275824,-0.14448 0.472842,-0.394035 l 0.223286,0.170748 q -0.302093,0.459708 -0.78807,0.722398 -0.472842,0.26269 -0.998222,0.26269 z m 6.291429,-7.23711 q 0.341497,0 0.577918,0.249556 0.249556,0.236421 0.249556,0.577918 0,0.315228 -0.223287,0.538514 -0.210152,0.210152 -0.538514,0.210152 -0.315228,0 -0.499111,-0.249555 -0.118211,-0.14448 -0.210152,-0.197018 -0.07881,-0.05254 -0.197018,-0.05254 -0.157614,0 -0.275824,0.07881 -0.118211,0.06567 -0.249556,0.249556 -0.223286,0.302093 -0.288959,0.407169 -0.06567,0.105076 -0.09194,0.236421 v 4.597075 l 1.31345,0.197018 v 0.26269 h -3.55945 v -0.26269 L 73.7901,35.22714 v -5.463952 l -0.971953,-0.367766 v -0.170748 l 2.035848,-0.643591 h 0.131345 v 1.431661 q 0.459707,-0.696129 0.919415,-1.063895 0.472842,-0.367766 0.880011,-0.367766 z m 4.899183,0.01314 q 0.971953,0 1.760023,0.472842 0.801204,0.459707 1.247777,1.287181 0.446573,0.827473 0.446573,1.851964 0,1.024491 -0.446573,1.851965 -0.446573,0.827473 -1.247777,1.300315 -0.78807,0.459708 -1.760023,0.459708 -0.971953,0 -1.773157,-0.459708 -0.78807,-0.472842 -1.234643,-1.300315 -0.446573,-0.827474 -0.446573,-1.851965 0,-1.024491 0.446573,-1.851964 0.446573,-0.827474 1.234643,-1.287181 0.801204,-0.472842 1.773157,-0.472842 z m -2.062116,3.611987 q 0,1.418526 0.538514,2.219731 0.551649,0.801204 1.510467,0.801204 0.971953,0 1.523602,-0.801204 0.551649,-0.814339 0.551649,-2.232865 0,-1.405392 -0.551649,-2.206596 -0.538514,-0.801205 -1.510467,-0.801205 -0.971953,0 -1.523602,0.801205 -0.538514,0.801204 -0.538514,2.21973 z m 11.624019,2.718842 q -0.827473,0.893146 -1.996444,0.893146 -0.853742,0 -1.510467,-0.420304 -0.656725,-0.420304 -1.024491,-1.168971 -0.367766,-0.761801 -0.367766,-1.733754 0,-1.182105 0.433438,-2.062116 0.433439,-0.893146 1.208374,-1.365988 0.78807,-0.472842 1.825696,-0.472842 1.011356,0 1.812561,0.604187 h 0.06567 l 0.591053,-0.446573 H 92.49363 V 38.5239 l 0.985087,0.197017 v 0.249556 h -3.53318 V 38.720917 L 91.245852,38.5239 Z m -1.43166,-5.910525 q -0.945684,0 -1.510468,0.801204 -0.551649,0.801205 -0.551649,2.311672 0,1.392257 0.538515,2.193462 0.551649,0.78807 1.510467,0.78807 0.433439,0 0.801205,-0.183883 0.3809,-0.183883 0.64359,-0.499111 v -3.756467 q 0,-0.748667 -0.394035,-1.19524 -0.394035,-0.459707 -1.037625,-0.459707 z m 11.243118,6.002466 v 0.157614 l -1.970171,0.643591 h -0.09194 v -1.19524 l -0.05254,-0.01313 q -0.472842,0.577918 -1.090164,0.893146 -0.604187,0.315228 -1.260912,0.315228 -0.52538,0 -0.919415,-0.210152 -0.394035,-0.210152 -0.577918,-0.591053 -0.105076,-0.236421 -0.144479,-0.604187 -0.0394,-0.367766 -0.0394,-1.260912 V 29.18527 l -0.985087,-0.197017 v -0.26269 h 2.232865 v 4.426326 q 0,0.617322 0.02627,0.945684 0.0394,0.328363 0.131345,0.52538 0.105076,0.223287 0.341497,0.354632 0.249555,0.131345 0.577918,0.131345 0.459707,0 0.893146,-0.236421 0.433438,-0.236421 0.78807,-0.682994 V 29.18527 l -0.985088,-0.197017 v -0.26269 h 2.232867 v 5.976197 z m 2.37735,-3.375566 q -0.0131,0.09194 -0.0131,0.302093 0,1.444795 0.57792,2.180327 0.57792,0.735532 1.69435,0.735532 0.64359,0 1.19524,-0.223286 0.55165,-0.236421 0.89314,-0.656725 l 0.15762,-0.197018 0.22329,0.131345 -0.0788,0.183883 q -0.3415,0.801205 -1.1033,1.260912 -0.7618,0.459708 -1.72062,0.459708 -0.93255,0 -1.65495,-0.433439 -0.70926,-0.446573 -1.10329,-1.234643 -0.39404,-0.801204 -0.39404,-1.83883 0,-1.090163 0.43344,-1.930771 0.44657,-0.853743 1.23464,-1.31345 0.80121,-0.472842 1.83883,-0.472842 1.28718,0 1.97018,0.761801 0.69613,0.748666 0.72239,2.206596 l -0.0919,0.07881 z m 2.06211,-2.640035 q -0.86688,0 -1.39226,0.591053 -0.52538,0.591052 -0.64359,1.681216 l 3.42811,-0.118211 q 0.0394,-0.157614 0.0394,-0.538514 0,-1.615544 -1.43166,-1.615544 z m 6.06813,6.816806 q -0.63045,0 -1.02449,-0.367766 -0.23642,-0.223287 -0.34149,-0.551649 -0.0919,-0.341497 -0.0919,-0.945684 V 29.18527 h -0.85374 l -0.0263,-0.210152 1.89137,-1.970175 0.23642,0.02627 v 1.694351 h 1.87823 l -0.10507,0.459707 h -1.77316 v 4.649613 q 0,0.472842 0.0263,0.682994 0.0263,0.197018 0.0919,0.315228 0.21015,0.367766 0.65673,0.367766 0.26269,0 0.52538,-0.144479 0.27582,-0.14448 0.47284,-0.394035 l 0.22329,0.170748 q -0.3021,0.459708 -0.78807,0.722398 -0.47285,0.26269 -0.99823,0.26269 z"
       id="text1"
       transform="scale(0.98792607,1.0122215)"
       aria-label="bistroquet" />
  </g>
</svg>
